<svg width="28" height="32" viewBox="0 0 200 232" fill="none" xmlns="http://www.w3.org/2000/svg" role="img" aria-label="War Room" style="display:block"><defs><linearGradient id="R16ivbL" x1="26" y1="30" x2="120" y2="216" gradientUnits="userSpaceOnUse"><stop offset="0" stop-color="#E0E7F0"></stop><stop offset="0.5" stop-color="#A9B4C2"></stop><stop offset="1" stop-color="#737F90"></stop></linearGradient><linearGradient id="R16ivbR" x1="100" y1="34" x2="174" y2="216" gradientUnits="userSpaceOnUse"><stop offset="0" stop-color="#6FA8EC"></stop><stop offset="0.55" stop-color="#2F6FC4"></stop><stop offset="1" stop-color="#1B4E96"></stop></linearGradient></defs><polygon points="26,34 100,34 100,216 26,112" fill="url(#R16ivbL)"></polygon><polygon points="100,34 174,34 174,112 100,216" fill="url(#R16ivbR)"></polygon><polygon points="42,48 100,48 100,126 42,108" fill="#3A5078"></polygon><polygon points="100,48 158,48 158,108 100,126" fill="#2A3D62"></polygon><polygon points="42,108 100,126 100,194" fill="#202F4C"></polygon><polygon points="158,108 100,126 100,194" fill="#141E32"></polygon><line x1="100" y1="48" x2="100" y2="194" stroke="#9BC2F0" stroke-width="1.6" opacity="0.5"></line><polyline points="42,106 100,124 158,106" fill="none" stroke="#9BC2F0" stroke-width="1.4" stroke-linejoin="round" opacity="0.25"></polyline><polyline points="42,108 100,126 158,108" fill="none" stroke="#0C1422" stroke-width="1.6" stroke-linejoin="round" opacity="0.55"></polyline><line x1="46" y1="49.5" x2="154" y2="49.5" stroke="#FFFFFF" stroke-width="1.6" opacity="0.28"></line><polygon points="26,34 174,34 174,112 100,216 26,112" fill="none" stroke="#080E18" stroke-opacity="0.35" stroke-width="1.5" stroke-linejoin="round"></polygon></svg>